HIERARCHY
ROOT Hips
{
	OFFSET 52.911598 -5.101096 95.970703
	CHANNELS 6 Xposition Yposition Zposition Xrotation Yrotation Zrotation
	JOINT spine
	{
		OFFSET 0.000000 -0.467660 8.132492
		CHANNELS 3 Xrotation Yrotation Zrotation
		JOINT spine1
		{
			OFFSET 0.000000 -0.000001 10.349800
			CHANNELS 3 Xrotation Yrotation Zrotation
			JOINT spine2
			{
				OFFSET 0.000000 -0.000001 9.916992
				CHANNELS 3 Xrotation Yrotation Zrotation
				JOINT Neck
				{
					OFFSET 0.000000 -1.213904 25.461006
					CHANNELS 3 Xrotation Yrotation Zrotation
					JOINT Head
					{
						OFFSET 0.000000 -0.000001 7.692444
						CHANNELS 3 Xrotation Yrotation Zrotation
						End Site
						{
							OFFSET 0.000000 6.140627 18.619995
						}
					}
				}
				JOINT RightShoulder
				{
					OFFSET -4.175751 0.581443 10.709602
					CHANNELS 3 Xrotation Yrotation Zrotation
					JOINT RightArm
					{
						OFFSET 0.000000 -0.000002 14.046600
						CHANNELS 3 Xrotation Yrotation Zrotation
						JOINT RightArmRoll
						{
							OFFSET 0.000000 -0.000001 7.090973
							CHANNELS 3 Xrotation Yrotation Zrotation
							JOINT RightForeArm
							{
								OFFSET 0.000000 -0.000003 20.653503
								CHANNELS 3 Xrotation Yrotation Zrotation
								JOINT RightForeArmRoll
								{
									OFFSET 0.000000 -0.000001 7.957184
									CHANNELS 3 Xrotation Yrotation Zrotation
									JOINT RightHand
									{
										OFFSET 0.000000 -0.000003 15.968292
										CHANNELS 3 Xrotation Yrotation Zrotation
										End Site
										{
											OFFSET 0.000000 0.000000 0.100006
										}
									}
								}
							}
						}
					}
				}
				JOINT LeftShoulder
				{
					OFFSET 4.175751 0.581443 10.709602
					CHANNELS 3 Xrotation Yrotation Zrotation
					JOINT LeftArm
					{
						OFFSET 0.000000 -0.000002 14.046600
						CHANNELS 3 Xrotation Yrotation Zrotation
						JOINT LeftArmRoll
						{
							OFFSET 0.000000 -0.000001 7.090973
							CHANNELS 3 Xrotation Yrotation Zrotation
							JOINT LeftForeArm
							{
								OFFSET 0.000000 -0.000003 20.653503
								CHANNELS 3 Xrotation Yrotation Zrotation
								JOINT LeftForeArmRoll
								{
									OFFSET 0.000000 -0.000001 7.957184
									CHANNELS 3 Xrotation Yrotation Zrotation
									JOINT LeftHand
									{
										OFFSET 0.000000 -0.000003 15.968292
										CHANNELS 3 Xrotation Yrotation Zrotation
										End Site
										{
											OFFSET 0.000000 0.000000 0.100006
										}
									}
								}
							}
						}
					}
				}
			}
		}
	}
	JOINT RightUpLeg
	{
		OFFSET -7.208340 1.108840 -1.321823
		CHANNELS 3 Xrotation Yrotation Zrotation
		JOINT RightUpLegRoll
		{
			OFFSET 0.000000 -0.000003 18.723801
			CHANNELS 3 Xrotation Yrotation Zrotation
			JOINT RightLeg
			{
				OFFSET 0.000000 0.000004 -23.186600
				CHANNELS 3 Xrotation Yrotation Zrotation
				JOINT RightLegRoll
				{
					OFFSET 0.000000 -0.000004 23.262398
					CHANNELS 3 Xrotation Yrotation Zrotation
					JOINT RightFoot
					{
						OFFSET 0.000000 -0.000003 19.362099
						CHANNELS 3 Xrotation Yrotation Zrotation
						JOINT RightToeBase
						{
							OFFSET 0.000000 -0.000003 16.185699
							CHANNELS 3 Xrotation Yrotation Zrotation
							End Site
							{
								OFFSET 0.006859 0.903521 7.838623
							}
						}
					}
				}
			}
		}
	}
	JOINT LeftUpLeg
	{
		OFFSET 7.208340 1.108840 -1.321823
		CHANNELS 3 Xrotation Yrotation Zrotation
		JOINT LeftUpLegRoll
		{
			OFFSET 0.000000 -0.000003 18.723900
			CHANNELS 3 Xrotation Yrotation Zrotation
			JOINT LeftLeg
			{
				OFFSET 0.000000 -0.000004 23.186501
				CHANNELS 3 Xrotation Yrotation Zrotation
				JOINT LeftLegRoll
				{
					OFFSET 0.000000 -0.000004 23.477493
					CHANNELS 3 Xrotation Yrotation Zrotation
					JOINT LeftFoot
					{
						OFFSET 0.000000 -0.000003 19.147003
						CHANNELS 3 Xrotation Yrotation Zrotation
						JOINT LeftToeBase
						{
							OFFSET 0.000000 -0.000003 16.185699
							CHANNELS 3 Xrotation Yrotation Zrotation
							End Site
							{
								OFFSET -0.030746 0.903520 7.838623
							}
						}
					}
				}
			}
		}
	}
}
MOTION
Frames: 9
Frame Time: 0.041667
52.909203 -5.095897 89.465294 6.540895 -0.215181 0.746851 1.514110 -0.622657 0.213281 7.033837 -1.236675 0.448776 8.679094 -1.231213 0.463561 -4.063910 11.184521 -5.610139 -3.008981 -7.101075 -7.281900 -13.554020 -43.394159 -15.404822 -8.112131 -118.295816 -16.850198 -0.000002 0.000000 -0.000002 37.706131 -18.192291 6.569031 0.000004 0.000007 -3.000000 -5.000241 -7.998841 0.000152 -12.935869 58.035072 15.247938 6.043522 109.974297 15.246475 -0.000002 0.000003 0.000005 51.948882 6.985809 -5.957813 0.000000 -0.000005 3.000001 -5.000218 7.998852 -0.000136 -28.672755 -174.755963 2.061383 -179.999991 0.000005 -0.904995 131.264187 -2.202260 -1.952720 0.000001 0.000002 1.499620 88.008661 6.274748 2.753859 26.645598 -7.328321 1.402272 -29.160441 172.603894 -1.881028 -0.000020 -0.000004 -0.890596 -50.771713 2.493839 1.559379 0.000001 -0.000002 -1.802140 86.646544 -6.262339 -2.931899 27.590976 7.252248 -2.931148 
52.942905 -5.210487 89.229195 6.462918 -0.243791 0.790098 1.544712 -0.630078 0.226181 7.095220 -1.250841 0.475218 8.740471 -1.245065 0.490173 -4.178377 11.123100 -5.648245 -3.065544 -6.965216 -7.336630 -13.700075 -43.583744 -15.600758 -9.088137 -118.412872 -17.463639 0.000003 -0.000001 -0.000001 37.275587 -18.255904 6.455396 0.000006 0.000006 -3.000000 -5.000241 -7.998841 0.000152 -12.752329 58.276984 15.034240 4.247179 110.119827 16.729736 -0.000003 0.000002 0.000007 51.713883 7.060190 -5.889784 -0.000000 -0.000005 3.000001 -5.000219 7.998852 -0.000134 -28.947657 -174.671433 2.106001 -179.999991 0.000005 -0.904995 130.412285 -2.182926 -1.959494 -0.000000 0.000002 1.542429 88.748951 6.265772 2.779084 26.369810 -7.334861 1.371382 -29.435383 172.625313 -1.909100 -0.000021 -0.000004 -0.894756 -51.602940 2.450108 1.545499 0.000004 -0.000002 -1.863620 87.302296 -6.248839 -2.982384 27.420887 7.261982 -2.876265 
53.041306 -5.179425 88.894196 6.392968 -0.260589 0.840462 1.573765 -0.635257 0.237792 7.153458 -1.260594 0.498986 8.798719 -1.254536 0.514056 -4.296304 11.004449 -5.690504 -3.119843 -6.809816 -7.386686 -13.852423 -43.827258 -15.805935 -10.092268 -118.505121 -18.124001 -0.000000 0.000000 -0.000002 36.935860 -18.289293 6.344686 0.000005 0.000007 -3.000000 -5.000241 -7.998841 0.000152 -12.576480 58.469083 14.828984 2.388383 110.319201 18.245964 -0.000000 0.000002 0.000007 51.427120 7.147454 -5.819614 0.000001 -0.000005 3.000001 -5.000219 7.998851 -0.000135 -29.225700 -174.599101 2.156510 -179.999991 0.000005 -0.904995 129.594602 -2.177446 -1.971102 -0.000002 0.000002 1.579080 89.410605 6.257076 2.801621 26.167254 -7.339706 1.338814 -29.722931 172.644315 -1.942585 -0.000020 -0.000005 -0.899445 -52.418061 2.409406 1.534959 0.000001 -0.000001 -1.921380 87.888586 -6.235236 -3.032712 27.294659 7.268901 -2.840128 
53.122402 -5.092027 88.606300 6.326841 -0.269160 0.898922 1.602538 -0.638330 0.249237 7.211150 -1.266148 0.522341 8.856400 -1.259803 0.537475 -4.424492 10.823514 -5.739519 -3.167741 -6.621705 -7.434605 -14.020832 -44.128175 -16.033200 -11.133075 -118.566770 -18.841540 0.000002 0.000001 -0.000002 36.684085 -18.290519 6.237487 0.000003 0.000007 -3.000001 -5.000244 -7.998842 0.000151 -12.404289 58.621868 14.627456 0.449616 110.566576 19.808034 -0.000000 0.000002 0.000008 51.090450 7.248400 -5.746107 -0.000001 -0.000005 3.000001 -5.000220 7.998852 -0.000137 -29.505693 -174.532657 2.213714 -179.999991 0.000005 -0.903998 128.799841 -2.186598 -1.988899 0.000001 0.000002 1.610400 90.032678 6.247983 2.821516 26.001425 -7.343702 1.297399 -30.020467 172.663371 -1.978363 -0.000021 -0.000004 -0.904630 -53.224276 2.369364 1.524406 0.000002 -0.000002 -1.977519 88.437604 -6.220642 -3.084611 27.185227 7.274704 -2.811716 
53.063305 -5.075619 88.268501 6.264272 -0.270305 0.964394 1.630991 -0.639615 0.260452 7.268178 -1.268141 0.545163 8.913421 -1.261525 0.560319 -4.561208 10.589322 -5.794808 -3.210037 -6.406314 -7.480424 -14.203956 -44.477864 -16.280319 -12.205951 -118.607273 -19.610752 0.000003 -0.000000 -0.000001 36.511111 -18.262843 6.133747 0.000005 0.000007 -3.000000 -5.000242 -7.998840 0.000152 -12.235608 58.739941 14.429625 -1.542438 110.861900 21.393553 -0.000002 0.000001 0.000006 50.709705 7.360918 -5.669219 0.000001 -0.000006 2.999998 -5.000218 7.998853 -0.000136 -29.787555 -174.472989 2.277075 -179.999991 0.000005 -0.902004 128.026937 -2.207790 -2.011124 -0.000001 0.000002 1.637090 90.615409 6.238392 2.839266 25.870194 -7.346858 1.249078 -30.326627 172.683288 -2.016761 -0.000020 -0.000004 -0.910268 -54.020277 2.329854 1.513878 -0.000001 -0.000001 -2.032040 88.950216 -6.205178 -3.137704 27.092707 7.279478 -2.790400 
53.080704 -5.058194 88.013000 6.205015 -0.264826 1.035793 1.659054 -0.639430 0.271376 7.324419 -1.267208 0.567333 8.969672 -1.260322 0.582475 -4.704747 10.310593 -5.855815 -3.247505 -6.169043 -7.524217 -14.399929 -44.867144 -16.544533 -13.306453 -118.632941 -20.426372 0.000000 -0.000001 -0.000001 36.407654 -18.209476 6.033150 0.000004 0.000007 -3.000000 -5.000241 -7.998841 0.000151 -12.070261 58.827982 14.235476 -3.562665 111.200343 22.981497 -0.000002 0.000002 0.000007 50.290478 7.482954 -5.588894 -0.000000 -0.000006 2.999999 -5.000221 7.998852 -0.000136 -30.071510 -174.417459 2.344047 -179.999991 0.000005 -0.899995 127.274619 -2.237968 -2.037137 -0.000003 0.000002 1.659860 91.158976 6.228254 2.854949 25.771441 -7.349195 1.195758 -30.640194 172.703956 -2.057601 -0.000021 -0.000004 -0.916313 -54.805066 2.290731 1.503402 0.000002 -0.000001 -2.084930 89.427189 -6.189073 -3.191768 27.016876 7.283277 -2.775518 
53.061005 -5.015256 87.683495 6.148820 -0.253516 1.112011 1.686675 -0.638094 0.281947 7.379784 -1.263976 0.588736 9.025028 -1.256840 0.603840 -4.853430 9.996557 -5.921888 -3.280916 -5.915297 -7.566061 -14.607246 -45.287296 -16.823377 -14.428549 -118.651915 -21.281302 0.000001 0.000001 -0.000002 36.364620 -18.133771 5.935329 0.000006 0.000007 -3.000000 -5.000238 -7.998842 0.000152 -11.908063 58.890834 14.044862 -5.588507 111.578182 24.553751 -0.000003 0.000002 0.000007 49.838415 7.612461 -5.505146 -0.000003 -0.000005 2.999999 -5.000223 7.998854 -0.000135 -30.357360 -174.367763 2.414586 -179.999991 0.000005 -0.898001 126.541713 -2.274847 -2.067872 0.000002 0.000002 1.679410 91.663625 6.217777 2.869637 25.703045 -7.350811 1.139386 -30.959800 172.723600 -2.099687 -0.000020 -0.000004 -0.922722 -55.577707 2.251834 1.493020 -0.000002 -0.000002 -2.136179 89.869396 -6.172647 -3.246544 26.957864 7.286145 -2.766429 
53.040703 -5.022160 87.437302 6.095433 -0.237162 1.191966 1.713804 -0.635924 0.292103 7.434153 -1.259110 0.609263 9.079386 -1.251723 0.624305 -5.005584 9.656034 -5.992266 -3.311066 -5.650504 -7.606059 -14.823722 -45.729418 -17.113792 -15.566220 -118.670097 -22.168373 0.000002 0.000000 -0.000001 36.372564 -18.038931 5.839627 0.000008 0.000007 -3.000001 -5.000241 -7.998841 0.000152 -11.748636 58.933174 13.857497 -7.599779 111.991955 26.094359 -0.000002 0.000003 0.000006 49.359393 7.747303 -5.418026 -0.000001 -0.000005 3.000001 -5.000219 7.998852 -0.000136 -30.645488 -174.322151 2.486546 -179.999991 0.000005 -0.896006 125.827125 -2.315683 -2.101350 -0.000000 0.000002 1.696450 92.129423 6.206869 2.884538 25.662902 -7.351789 1.081889 -31.284093 172.743858 -2.143847 -0.000022 -0.000004 -0.929450 -56.336906 2.213036 1.482751 -0.000003 -0.000002 -2.185780 90.277636 -6.155978 -3.301669 26.915563 7.288136 -2.762481 
53.078606 -4.990868 87.143303 6.044574 -0.216551 1.274540 1.740384 -0.633241 0.301786 7.487414 -1.253216 0.628800 9.132649 -1.245603 0.643771 -5.159548 9.297946 -6.066076 -3.338725 -5.380055 -7.644308 -15.047438 -46.184732 -17.412825 -16.712033 -118.694153 -23.078866 0.000002 0.000001 -0.000001 36.422295 -17.928179 5.745496 0.000007 0.000007 -3.000000 -5.000241 -7.998840 0.000152 -11.591530 58.959723 13.672948 -9.579761 112.435412 27.591135 -0.000003 0.000002 0.000007 48.858884 7.885546 -5.327730 -0.000005 -0.000005 3.000000 -5.000222 7.998853 -0.000135 -30.935675 -174.280623 2.558853 -179.999991 0.000005 -0.893998 125.129571 -2.358482 -2.138336 -0.000004 0.000002 1.711670 92.556816 6.195802 2.897598 25.648791 -7.352241 1.025170 -31.611908 172.762941 -2.188807 -0.000019 -0.000004 -0.936453 -57.081646 2.174176 1.472615 -0.000004 -0.000002 -2.233719 90.652750 -6.139342 -3.356696 26.889775 7.289280 -2.763007 
